<svg width="32" height="32" viewBox="0 0 32 32" fill="none" xmlns="http://www.w3.org/2000/svg">
<rect width="32" height="32" fill="#3D3D3D"/>
<path d="M11.3333 22.6667H20.6667C21.402 22.6667 22 22.0687 22 21.3334V14C22 13.8232 21.9298 13.6537 21.8047 13.5286C21.6797 13.4036 21.5101 13.3334 21.3333 13.3334H19.3333V12.6667C19.3333 10.8287 17.838 9.33337 16 9.33337C14.162 9.33337 12.6667 10.8287 12.6667 12.6667V13.3334H10.6667C10.4899 13.3334 10.3203 13.4036 10.1953 13.5286C10.0702 13.6537 10 13.8232 10 14V21.3334C10 22.0687 10.598 22.6667 11.3333 22.6667ZM14 12.6667C14 11.564 14.8973 10.6667 16 10.6667C17.1027 10.6667 18 11.564 18 12.6667V13.3334H14V12.6667ZM11.3333 14.6667H12.6667V16H14V14.6667H18V16H19.3333V14.6667H20.6667L20.668 21.3334H11.3333V14.6667Z" fill="white"/>
</svg>
