<svg width="72" height="64" viewBox="0 0 72 64" fill="none" xmlns="http://www.w3.org/2000/svg">
<g filter="url(#filter0_d_43_257)">
<rect x="12" y="8" width="48" height="40" fill="white"/>
</g>
<path d="M30.5 26C30.277 26 30.063 26.034 29.85 26.065C29.919 25.833 29.99 25.597 30.104 25.385C30.218 25.077 30.396 24.81 30.573 24.541C30.721 24.25 30.982 24.053 31.174 23.804C31.375 23.562 31.649 23.401 31.866 23.2C32.079 22.99 32.358 22.885 32.58 22.737C32.812 22.604 33.014 22.457 33.23 22.387L33.769 22.165L34.243 21.968L33.758 20.03L33.161 20.174C32.97 20.222 32.737 20.278 32.472 20.345C32.201 20.395 31.912 20.532 31.59 20.657C31.272 20.799 30.904 20.895 30.562 21.123C30.218 21.341 29.821 21.523 29.471 21.815C29.132 22.116 28.723 22.377 28.421 22.76C28.091 23.118 27.765 23.494 27.512 23.922C27.219 24.33 27.02 24.778 26.81 25.221C26.62 25.664 26.467 26.117 26.342 26.557C26.105 27.439 25.999 28.277 25.958 28.994C25.924 29.712 25.944 30.309 25.986 30.741C26.001 30.945 26.029 31.143 26.049 31.28L26.074 31.448L26.1 31.442C26.2779 32.2729 26.6873 33.0364 27.281 33.6442C27.8746 34.2521 28.6283 34.6794 29.4547 34.8769C30.2811 35.0743 31.1465 35.0337 31.9508 34.7599C32.7551 34.486 33.4654 33.99 33.9996 33.3293C34.5338 32.6686 34.8701 31.8701 34.9694 31.0263C35.0688 30.1825 34.9273 29.3278 34.5612 28.5611C34.1951 27.7943 33.6194 27.1469 32.9007 26.6937C32.182 26.2405 31.3497 26 30.5 26ZM41.5 26C41.277 26 41.063 26.034 40.85 26.065C40.919 25.833 40.99 25.597 41.104 25.385C41.218 25.077 41.396 24.81 41.573 24.541C41.721 24.25 41.982 24.053 42.174 23.804C42.375 23.562 42.649 23.401 42.866 23.2C43.079 22.99 43.358 22.885 43.58 22.737C43.812 22.604 44.014 22.457 44.23 22.387L44.769 22.165L45.243 21.968L44.758 20.03L44.161 20.174C43.97 20.222 43.737 20.278 43.472 20.345C43.201 20.395 42.912 20.532 42.59 20.657C42.273 20.8 41.904 20.895 41.562 21.124C41.218 21.342 40.821 21.524 40.471 21.816C40.132 22.117 39.723 22.378 39.421 22.76C39.091 23.118 38.765 23.494 38.512 23.922C38.219 24.33 38.02 24.778 37.81 25.221C37.62 25.664 37.467 26.117 37.342 26.557C37.105 27.439 36.999 28.277 36.958 28.994C36.924 29.712 36.944 30.309 36.986 30.741C37.001 30.945 37.029 31.143 37.049 31.28L37.074 31.448L37.1 31.442C37.2779 32.2729 37.6873 33.0364 38.281 33.6442C38.8746 34.2521 39.6283 34.6794 40.4547 34.8769C41.2811 35.0743 42.1465 35.0337 42.9508 34.7599C43.7551 34.486 44.4654 33.99 44.9996 33.3293C45.5338 32.6686 45.8701 31.8701 45.9694 31.0263C46.0688 30.1825 45.9273 29.3278 45.5612 28.5611C45.1951 27.7943 44.6194 27.1469 43.9007 26.6937C43.182 26.2405 42.3497 26 41.5 26Z" fill="#FFB568"/>
<defs>
<filter id="filter0_d_43_257" x="0" y="0" width="72" height="64" filterUnits="userSpaceOnUse" color-interpolation-filters="sRGB">
<feFlood flood-opacity="0" result="BackgroundImageFix"/>
<feColorMatrix in="SourceAlpha" type="matrix" values="0 0 0 0 0 0 0 0 0 0 0 0 0 0 0 0 0 0 127 0" result="hardAlpha"/>
<feOffset dy="4"/>
<feGaussianBlur stdDeviation="6"/>
<feComposite in2="hardAlpha" operator="out"/>
<feColorMatrix type="matrix" values="0 0 0 0 0.2 0 0 0 0 0.2 0 0 0 0 0.2 0 0 0 0.1 0"/>
<feBlend mode="normal" in2="BackgroundImageFix" result="effect1_dropShadow_43_257"/>
<feBlend mode="normal" in="SourceGraphic" in2="effect1_dropShadow_43_257" result="shape"/>
</filter>
</defs>
</svg>
