<svg width="74" height="20" viewBox="0 0 74 20" fill="none" xmlns="http://www.w3.org/2000/svg">
<path d="M28.8999 12.0962H27.1494V16H24.9521V5.33594H28.9146C30.1743 5.33594 31.146 5.6167 31.8296 6.17822C32.5132 6.73975 32.855 7.5332 32.855 8.55859C32.855 9.28613 32.6963 9.89404 32.3789 10.3823C32.0664 10.8657 31.5903 11.2515 30.9507 11.5396L33.2578 15.8975V16H30.8994L28.8999 12.0962ZM27.1494 10.3164H28.9219C29.4736 10.3164 29.9009 10.1772 30.2036 9.89893C30.5063 9.61572 30.6577 9.22754 30.6577 8.73438C30.6577 8.23145 30.5137 7.83594 30.2256 7.54785C29.9424 7.25977 29.5054 7.11572 28.9146 7.11572H27.1494V10.3164ZM44.042 10.9097C44.042 11.9595 43.8564 12.8799 43.4854 13.6709C43.1143 14.4619 42.582 15.0723 41.8887 15.502C41.2002 15.9316 40.4092 16.1465 39.5156 16.1465C38.6318 16.1465 37.8433 15.9341 37.1499 15.5093C36.4565 15.0845 35.9194 14.479 35.5386 13.6929C35.1577 12.9019 34.9648 11.9937 34.96 10.9683V10.4409C34.96 9.39111 35.1479 8.46826 35.5239 7.67236C35.9048 6.87158 36.4395 6.25879 37.1279 5.83398C37.8213 5.4043 38.6123 5.18945 39.501 5.18945C40.3896 5.18945 41.1782 5.4043 41.8667 5.83398C42.5601 6.25879 43.0947 6.87158 43.4707 7.67236C43.8516 8.46826 44.042 9.38867 44.042 10.4336V10.9097ZM41.8154 10.4263C41.8154 9.30811 41.6152 8.4585 41.2148 7.87744C40.8145 7.29639 40.2432 7.00586 39.501 7.00586C38.7637 7.00586 38.1948 7.29395 37.7944 7.87012C37.394 8.44141 37.1914 9.28125 37.1865 10.3896V10.9097C37.1865 11.9985 37.3867 12.8433 37.7871 13.4438C38.1875 14.0444 38.7637 14.3447 39.5156 14.3447C40.2529 14.3447 40.8193 14.0566 41.2148 13.4805C41.6104 12.8994 41.8105 12.0547 41.8154 10.9463V10.4263ZM48.5859 14.2349H53.2515V16H46.3887V5.33594H48.5859V14.2349ZM61.6846 11.3784H57.4658V14.2349H62.417V16H55.2686V5.33594H62.4023V7.11572H57.4658V9.65723H61.6846V11.3784ZM68.272 9.0127L70.2715 5.33594H72.7983L69.6929 10.624L72.8789 16H70.3228L68.272 12.2646L66.2212 16H63.665L66.8511 10.624L63.7456 5.33594H66.2725L68.272 9.0127Z" fill="#2E2E2E"/>
<path d="M10.8333 6.66669H9.16666V10.8334H13.3333V9.16669H10.8333V6.66669Z" fill="#2E2E2E"/>
<path d="M16.6658 10C16.6658 7.53919 15.3225 5.39169 13.3333 4.23669V2.50002C13.3333 2.27901 13.2455 2.06704 13.0893 1.91076C12.933 1.75448 12.721 1.66669 12.5 1.66669H7.5C7.27899 1.66669 7.06703 1.75448 6.91075 1.91076C6.75447 2.06704 6.66667 2.27901 6.66667 2.50002V4.23585C4.6775 5.39085 3.33417 7.53919 3.33417 10C3.33517 11.1916 3.6554 12.3611 4.26154 13.387C4.86768 14.4129 5.73761 15.2576 6.78083 15.8334H6.66667V17.5342C6.66667 17.7552 6.75447 17.9672 6.91075 18.1234C7.06703 18.2797 7.27899 18.3675 7.5 18.3675H12.5C12.721 18.3675 12.933 18.2797 13.0893 18.1234C13.2455 17.9672 13.3333 17.7552 13.3333 17.5342V15.8334H13.2175C14.2612 15.258 15.1316 14.4134 15.7381 13.3875C16.3446 12.3616 16.6649 11.1918 16.6658 10ZM9.99917 14.9992C8.67386 14.9976 7.40328 14.4704 6.46622 13.5332C5.52916 12.596 5.00216 11.3253 5.00083 10C5.00216 8.67471 5.52916 7.40405 6.46622 6.46683C7.40328 5.52962 8.67386 5.0024 9.99917 5.00085C12.7575 5.00085 14.9992 7.24335 14.9992 10C14.9978 11.3256 14.4706 12.5965 13.5332 13.5338C12.5958 14.4711 11.3248 14.9981 9.99917 14.9992Z" fill="#2E2E2E"/>
</svg>
