<svg width="76" height="20" viewBox="0 0 76 20" fill="none" xmlns="http://www.w3.org/2000/svg">
<path d="M29.2266 10.8359H27.3594V15H25.0156V3.625H29.2422C30.5859 3.625 31.6224 3.92448 32.3516 4.52344C33.0807 5.1224 33.4453 5.96875 33.4453 7.0625C33.4453 7.83854 33.276 8.48698 32.9375 9.00781C32.6042 9.52344 32.0964 9.9349 31.4141 10.2422L33.875 14.8906V15H31.3594L29.2266 10.8359ZM27.3594 8.9375H29.25C29.8385 8.9375 30.2943 8.78906 30.6172 8.49219C30.9401 8.1901 31.1016 7.77604 31.1016 7.25C31.1016 6.71354 30.9479 6.29167 30.6406 5.98438C30.3385 5.67708 29.8724 5.52344 29.2422 5.52344H27.3594V8.9375ZM45.2181 9.57031C45.2181 10.6901 45.0202 11.6719 44.6244 12.5156C44.2285 13.3594 43.6608 14.0104 42.9213 14.4688C42.1869 14.9271 41.3431 15.1562 40.39 15.1562C39.4473 15.1562 38.6061 14.9297 37.8666 14.4766C37.127 14.0234 36.5541 13.3776 36.1478 12.5391C35.7416 11.6953 35.5358 10.7266 35.5306 9.63281V9.07031C35.5306 7.95052 35.7311 6.96615 36.1322 6.11719C36.5384 5.26302 37.1088 4.60938 37.8431 4.15625C38.5827 3.69792 39.4265 3.46875 40.3744 3.46875C41.3223 3.46875 42.1634 3.69792 42.8978 4.15625C43.6374 4.60938 44.2077 5.26302 44.6088 6.11719C45.015 6.96615 45.2181 7.94792 45.2181 9.0625V9.57031ZM42.8431 9.05469C42.8431 7.86198 42.6296 6.95573 42.2025 6.33594C41.7754 5.71615 41.166 5.40625 40.3744 5.40625C39.5879 5.40625 38.9811 5.71354 38.5541 6.32812C38.127 6.9375 37.9108 7.83333 37.9056 9.01562V9.57031C37.9056 10.7318 38.1192 11.6328 38.5463 12.2734C38.9733 12.9141 39.5879 13.2344 40.39 13.2344C41.1765 13.2344 41.7806 12.9271 42.2025 12.3125C42.6244 11.6927 42.8379 10.7917 42.8431 9.60938V9.05469ZM49.905 13.1172H54.8816V15H47.5613V3.625H49.905V13.1172ZM63.7169 10.0703H59.2169V13.1172H64.4981V15H56.8731V3.625H64.4825V5.52344H59.2169V8.23438H63.7169V10.0703ZM70.5834 7.54688L72.7163 3.625H75.4116L72.0991 9.26562L75.4975 15H72.7709L70.5834 11.0156L68.3959 15H65.6694L69.0678 9.26562L65.7553 3.625H68.4506L70.5834 7.54688Z" fill="#F2F2F2"/>
<path d="M10.8334 6.66669H9.16675V10.8334H13.3334V9.16669H10.8334V6.66669Z" fill="#F2F2F2"/>
<path d="M16.6659 10C16.6659 7.53919 15.3226 5.39169 13.3334 4.23669V2.50002C13.3334 2.27901 13.2456 2.06704 13.0893 1.91076C12.933 1.75448 12.7211 1.66669 12.5001 1.66669H7.50006C7.27905 1.66669 7.06709 1.75448 6.91081 1.91076C6.75453 2.06704 6.66673 2.27901 6.66673 2.50002V4.23585C4.67756 5.39085 3.33423 7.53919 3.33423 10C3.33523 11.1916 3.65546 12.3611 4.2616 13.387C4.86774 14.4129 5.73767 15.2576 6.7809 15.8334H6.66673V17.5342C6.66673 17.7552 6.75453 17.9672 6.91081 18.1234C7.06709 18.2797 7.27905 18.3675 7.50006 18.3675H12.5001C12.7211 18.3675 12.933 18.2797 13.0893 18.1234C13.2456 17.9672 13.3334 17.7552 13.3334 17.5342V15.8334H13.2176C14.2613 15.258 15.1317 14.4134 15.7382 13.3875C16.3446 12.3616 16.665 11.1918 16.6659 10ZM9.99923 14.9992C8.67392 14.9976 7.40334 14.4704 6.46628 13.5332C5.52923 12.596 5.00222 11.3253 5.0009 10C5.00222 8.67471 5.52923 7.40405 6.46628 6.46683C7.40334 5.52962 8.67392 5.0024 9.99923 5.00085C12.7576 5.00085 14.9992 7.24335 14.9992 10C14.9979 11.3256 14.4707 12.5965 13.5333 13.5338C12.5958 14.4711 11.3248 14.9981 9.99923 14.9992Z" fill="#F2F2F2"/>
</svg>
