<svg width="18" height="18" viewBox="0 0 18 18" fill="none" xmlns="http://www.w3.org/2000/svg">
<path d="M4.82754 9.00002C4.82754 11.3009 6.69921 13.1725 9.00004 13.1725C11.3009 13.1725 13.1725 11.3009 13.1725 9.00002C13.1725 6.69919 11.3009 4.82752 9.00004 4.82752C6.69921 4.82752 4.82754 6.69919 4.82754 9.00002ZM9.00004 6.49419C10.3817 6.49419 11.5059 7.61835 11.5059 9.00002C11.5059 10.3817 10.3817 11.5059 9.00004 11.5059C7.61837 11.5059 6.49421 10.3817 6.49421 9.00002C6.49421 7.61835 7.61837 6.49419 9.00004 6.49419ZM8.16504 14.8334H9.83171V17.3334H8.16504V14.8334ZM8.16504 0.666687H9.83171V3.16669H8.16504V0.666687ZM0.665039 8.16669H3.16504V9.83335H0.665039V8.16669ZM14.8317 8.16669H17.3317V9.83335H14.8317V8.16669ZM2.51587 14.3025L4.28254 12.5342L5.46171 13.7125L3.69504 15.4809L2.51587 14.3025ZM12.5334 4.28669L14.3017 2.51835L15.48 3.69669L13.7117 5.46502L12.5334 4.28669ZM4.28504 5.46585L2.51671 3.69752L3.69587 2.51919L5.46254 4.28752L4.28504 5.46585ZM15.48 14.3034L14.3017 15.4817L12.5334 13.7134L13.7117 12.535L15.48 14.3034Z" fill="#2E2E2E"/>
</svg>
