<svg width="32" height="66" viewBox="0 0 32 66" fill="none" xmlns="http://www.w3.org/2000/svg">
<rect y="66" width="66" height="32" transform="rotate(-90 0 66)" fill="#FFB568"/>
<path d="M18.4365 43.7861C17.999 43.7861 17.6618 43.9411 17.4248 44.251C17.1878 44.5563 16.9486 45.11 16.707 45.9121C16.4655 46.7142 16.1966 47.3522 15.9004 47.8262C15.3307 48.7331 14.5879 49.1865 13.6719 49.1865C12.8698 49.1865 12.209 48.8607 11.6895 48.209C11.1699 47.5527 10.9102 46.7028 10.9102 45.6592C10.9102 44.9665 11.0378 44.349 11.293 43.8066C11.5482 43.2643 11.9128 42.8382 12.3867 42.5283C12.8561 42.2184 13.3779 42.0635 13.9521 42.0635L13.9521 43.7861C13.4326 43.7861 13.027 43.9502 12.7354 44.2783C12.4391 44.6019 12.291 45.0667 12.291 45.6729C12.291 46.238 12.4118 46.6777 12.6533 46.9922C12.8949 47.3021 13.2321 47.457 13.665 47.457C14.0296 47.457 14.335 47.2884 14.5811 46.9512C14.8226 46.6139 15.0596 46.0579 15.292 45.2832C15.5199 44.5085 15.7819 43.8864 16.0781 43.417C16.3698 42.9476 16.707 42.6035 17.0898 42.3848C17.4681 42.166 17.9124 42.0566 18.4229 42.0566C19.2523 42.0566 19.9131 42.3757 20.4053 43.0137C20.8929 43.6471 21.1367 44.5085 21.1367 45.5977C21.1367 46.3177 21.0046 46.9808 20.7402 47.5869C20.4714 48.1885 20.1022 48.6579 19.6328 48.9951C19.1634 49.3278 18.6165 49.4941 17.9922 49.4941L17.9922 47.7646C18.5573 47.7646 18.9948 47.5778 19.3047 47.2041C19.6146 46.8304 19.7695 46.2949 19.7695 45.5977C19.7695 44.9961 19.6488 44.5449 19.4072 44.2441C19.1611 43.9388 18.8376 43.7861 18.4365 43.7861ZM18.6826 34.9678L18.6826 38.8232L21 39.6299L21 41.4277L11.0469 37.668L11.0469 36.1162L21 32.3496L21 34.1543L18.6826 34.9678ZM17.2881 38.3379L17.2881 35.4531L13.1592 36.8955L17.2881 38.3379ZM19.6191 29.4854L19.6191 24.9668L21 24.9668L21 31.2148L11.0469 31.2148L11.0469 29.4854L19.6191 29.4854ZM16.5566 17.8232L16.5566 21.9111L19.6191 21.9111L19.6191 17.1328L21 17.1328L21 23.6406L11.0469 23.6406L11.0469 17.1807L12.4414 17.1807L12.4414 21.9111L15.1895 21.9111L15.1895 17.8232L16.5566 17.8232Z" fill="white"/>
</svg>
