<svg width="15" height="221" viewBox="0 0 15 221" fill="none" xmlns="http://www.w3.org/2000/svg">
<path d="M7.91846 214.83L7.91846 218.708L12 218.708L12 219.927L2.75781 219.927L2.75781 214.202L3.76074 214.202L3.76074 218.708L6.92187 218.708L6.92187 214.83L7.91846 214.83ZM12 208.901C11.8646 208.969 11.6234 209.024 11.2764 209.066C11.8434 209.612 12.127 210.264 12.127 211.021C12.127 211.699 11.9365 212.255 11.5557 212.691C11.1706 213.123 10.6839 213.338 10.0957 213.338C9.38053 213.338 8.82617 213.068 8.43262 212.526C8.03483 211.98 7.83594 211.214 7.83594 210.228L7.83594 209.085L7.29639 209.085C6.8859 209.085 6.56006 209.208 6.31885 209.454C6.0734 209.699 5.95068 210.061 5.95068 210.539C5.95068 210.958 6.05648 211.309 6.26807 211.593C6.47965 211.876 6.73568 212.018 7.03613 212.018L7.03613 213.199C6.69336 213.199 6.36328 213.078 6.0459 212.837C5.72428 212.591 5.47038 212.261 5.28418 211.847C5.09798 211.428 5.00488 210.969 5.00488 210.469C5.00488 209.678 5.20378 209.058 5.60156 208.609C5.99512 208.161 6.5389 207.928 7.23291 207.911L10.394 207.911C11.0246 207.911 11.526 207.831 11.8984 207.67L12 207.67L12 208.901ZM11.105 210.85C11.105 210.482 11.0098 210.133 10.8193 209.803C10.6289 209.473 10.3813 209.234 10.0767 209.085L8.66748 209.085L8.66748 210.006C8.66748 211.445 9.08854 212.164 9.93066 212.164C10.2988 212.164 10.5866 212.041 10.7939 211.796C11.0013 211.55 11.105 211.235 11.105 210.85ZM11.1685 203.315C11.1685 202.896 11.0415 202.53 10.7876 202.217C10.5337 201.904 10.2163 201.731 9.83545 201.697L9.83545 200.586C10.229 200.607 10.6035 200.743 10.959 200.992C11.3145 201.242 11.598 201.576 11.8096 201.995C12.0212 202.41 12.127 202.85 12.127 203.315C12.127 204.251 11.8159 204.995 11.1938 205.55C10.5675 206.1 9.71273 206.375 8.62939 206.375L8.43262 206.375C7.764 206.375 7.16943 206.252 6.64893 206.007C6.12842 205.761 5.72428 205.41 5.43652 204.953C5.14876 204.492 5.00488 203.948 5.00488 203.322C5.00488 202.552 5.23551 201.913 5.69678 201.405C6.15804 200.893 6.75684 200.62 7.49316 200.586L7.49316 201.697C7.04883 201.731 6.68489 201.9 6.40137 202.205C6.11361 202.505 5.96973 202.877 5.96973 203.322C5.96973 203.918 6.18555 204.382 6.61719 204.712C7.0446 205.038 7.66455 205.201 8.47705 205.201L8.69922 205.201C9.49056 205.201 10.0999 205.038 10.5273 204.712C10.9548 204.386 11.1685 203.921 11.1685 203.315ZM12.127 196.416C12.127 197.347 11.8223 198.104 11.2129 198.688C10.5993 199.272 9.78044 199.564 8.75635 199.564L8.54053 199.564C7.85921 199.564 7.25195 199.435 6.71875 199.177C6.18131 198.914 5.76237 198.55 5.46191 198.085C5.15723 197.615 5.00488 197.107 5.00488 196.562C5.00488 195.669 5.29899 194.975 5.88721 194.479C6.47542 193.984 7.31754 193.737 8.41357 193.737L8.90234 193.737L8.90234 198.39C9.57943 198.373 10.1274 198.176 10.5464 197.799C10.9611 197.418 11.1685 196.936 11.1685 196.352C11.1685 195.937 11.0838 195.586 10.9145 195.298C10.7453 195.011 10.521 194.759 10.2417 194.543L10.8003 193.826C11.6847 194.401 12.127 195.264 12.127 196.416ZM5.96973 196.562C5.96973 197.035 6.14323 197.433 6.49023 197.755C6.83301 198.076 7.31543 198.275 7.9375 198.352L7.9375 194.911L7.84863 194.911C7.25195 194.945 6.79069 195.106 6.46484 195.394C6.13476 195.681 5.96973 196.071 5.96973 196.562ZM8.64209 186.558C9.69157 186.558 10.5358 186.799 11.1748 187.281C11.8096 187.764 12.127 188.411 12.127 189.224C12.127 190.091 11.8201 190.762 11.2065 191.236L12 191.293L12 192.372L2.25 192.372L2.25 191.198L5.88721 191.198C5.29899 190.724 5.00488 190.07 5.00488 189.236C5.00488 188.403 5.32015 187.749 5.95068 187.275C6.58122 186.797 7.4445 186.558 8.54053 186.558L8.64209 186.558ZM8.50879 187.732C7.70898 187.732 7.09114 187.886 6.65527 188.195C6.2194 188.504 6.00146 188.949 6.00146 189.528C6.00146 190.303 6.36116 190.859 7.08057 191.198L10.0513 191.198C10.7707 190.838 11.1304 190.277 11.1304 189.516C11.1304 188.953 10.9124 188.515 10.4766 188.202C10.0407 187.889 9.38476 187.732 8.50879 187.732ZM8.50244 185.383C7.82959 185.383 7.22445 185.252 6.68701 184.99C6.14958 184.723 5.73486 184.355 5.44287 183.885C5.15088 183.411 5.00488 182.872 5.00488 182.267C5.00488 181.331 5.32861 180.576 5.97607 180C6.62353 179.421 7.4847 179.131 8.55957 179.131L8.64209 179.131C9.31071 179.131 9.91162 179.26 10.4448 179.518C10.9738 179.772 11.3864 180.138 11.6826 180.616C11.9788 181.09 12.127 181.636 12.127 182.254C12.127 183.185 11.8032 183.94 11.1558 184.52C10.5083 185.096 9.65137 185.383 8.58496 185.383L8.50244 185.383ZM8.64209 184.203C9.40381 184.203 10.0153 184.027 10.4766 183.676C10.9378 183.32 11.1685 182.846 11.1685 182.254C11.1685 181.657 10.9357 181.183 10.4702 180.832C10.0005 180.481 9.34456 180.305 8.50244 180.305C7.74918 180.305 7.13981 180.485 6.67431 180.845C6.20459 181.2 5.96972 181.674 5.96972 182.267C5.96972 182.846 6.20036 183.314 6.66162 183.669C7.12288 184.025 7.78304 184.203 8.64209 184.203ZM8.50244 177.969C7.82959 177.969 7.22444 177.838 6.68701 177.576C6.14957 177.309 5.73486 176.941 5.44287 176.471C5.15088 175.997 5.00488 175.458 5.00488 174.853C5.00488 173.917 5.32861 173.162 5.97607 172.586C6.62353 172.007 7.4847 171.717 8.55957 171.717L8.64209 171.717C9.31071 171.717 9.91162 171.846 10.4448 172.104C10.9738 172.358 11.3864 172.724 11.6826 173.202C11.9788 173.676 12.127 174.222 12.127 174.84C12.127 175.771 11.8032 176.526 11.1558 177.106C10.5083 177.681 9.65137 177.969 8.58496 177.969L8.50244 177.969ZM8.64209 176.789C9.40381 176.789 10.0153 176.613 10.4766 176.262C10.9378 175.906 11.1685 175.432 11.1685 174.84C11.1685 174.243 10.9357 173.769 10.4702 173.418C10.0005 173.067 9.34456 172.891 8.50244 172.891C7.74918 172.891 7.13981 173.071 6.67431 173.431C6.20459 173.786 5.96972 174.26 5.96972 174.853C5.96972 175.432 6.20036 175.9 6.66162 176.255C7.12288 176.611 7.78304 176.789 8.64209 176.789ZM8.81982 168.327L9.58789 169.063L12 169.063L12 170.238L2.25 170.238L2.25 169.063L8.14697 169.063L7.3916 168.435L5.13183 166.296L5.13183 164.868L8.00097 167.54L12 164.557L12 165.934L8.81982 168.327Z" fill="#8C8C8C"/>
<path d="M3.76074 124.542L3.76074 127.512L12 127.512L12 128.725L3.76074 128.725L3.76074 131.689L2.75781 131.689L2.75781 124.542L3.76074 124.542ZM10.3813 117.642L5.13184 116.321L5.13184 115.147L12 117.146L12 118.099L6.79492 119.768L12 121.393L12 122.345L5.13184 124.338L5.13184 123.17L10.2734 121.818L5.13184 120.219L5.13184 119.273L10.3813 117.642ZM12 112.671L12 113.846L5.13184 113.846L5.13184 112.671L12 112.671ZM3.31006 113.941C3.11963 113.941 2.95882 113.884 2.82764 113.77C2.69645 113.651 2.63086 113.478 2.63086 113.249C2.63086 113.021 2.69645 112.847 2.82764 112.729C2.95882 112.61 3.11963 112.551 3.31006 112.551C3.50049 112.551 3.65918 112.61 3.78613 112.729C3.91309 112.847 3.97656 113.021 3.97656 113.249C3.97656 113.478 3.91309 113.651 3.78613 113.77C3.65918 113.884 3.50049 113.941 3.31006 113.941ZM3.46875 109.193L5.13183 109.193L5.13183 107.911L6.03955 107.911L6.03955 109.193L10.2988 109.193C10.5739 109.193 10.7812 109.136 10.9209 109.021C11.0563 108.907 11.124 108.713 11.124 108.437C11.124 108.302 11.0986 108.116 11.0479 107.879L12 107.879C12.0846 108.188 12.127 108.488 12.127 108.78C12.127 109.305 11.9683 109.701 11.6509 109.967C11.3335 110.234 10.8828 110.367 10.2988 110.367L6.03955 110.367L6.03955 111.618L5.13184 111.618L5.13183 110.367L3.46875 110.367L3.46875 109.193ZM3.46875 104.94L5.13183 104.94L5.13183 103.658L6.03955 103.658L6.03955 104.94L10.2988 104.94C10.5739 104.94 10.7812 104.883 10.9209 104.769C11.0563 104.654 11.124 104.46 11.124 104.185C11.124 104.049 11.0986 103.863 11.0479 103.626L12 103.626C12.0846 103.935 12.127 104.235 12.127 104.527C12.127 105.052 11.9683 105.448 11.6509 105.714C11.3335 105.981 10.8828 106.114 10.2988 106.114L6.03955 106.114L6.03955 107.365L5.13183 107.365L5.13183 106.114L3.46875 106.114L3.46875 104.94ZM12.127 99.4302C12.127 100.361 11.8223 101.119 11.2129 101.703C10.5993 102.287 9.78043 102.579 8.75635 102.579L8.54053 102.579C7.85921 102.579 7.25195 102.45 6.71875 102.191C6.18131 101.929 5.76237 101.565 5.46191 101.1C5.15723 100.63 5.00488 100.122 5.00488 99.5762C5.00488 98.6833 5.29899 97.9893 5.88721 97.4941C6.47542 96.999 7.31754 96.7515 8.41357 96.7515L8.90234 96.7515L8.90234 101.404C9.57943 101.387 10.1274 101.191 10.5464 100.814C10.9611 100.433 11.1685 99.9507 11.1685 99.3667C11.1685 98.952 11.0838 98.6007 10.9145 98.313C10.7453 98.0252 10.521 97.7734 10.2417 97.5576L10.8003 96.8403C11.6847 97.4159 12.127 98.2791 12.127 99.4302ZM5.96973 99.5762C5.96973 100.05 6.14323 100.448 6.49023 100.77C6.83301 101.091 7.31543 101.29 7.9375 101.366L7.9375 97.9258L7.84863 97.9258C7.25195 97.9596 6.79069 98.1204 6.46484 98.4082C6.13476 98.696 5.96973 99.0853 5.96973 99.5762ZM6.18555 92.0669C6.15592 92.2446 6.14111 92.4372 6.14111 92.6445C6.14111 93.4147 6.46907 93.9373 7.125 94.2124L12 94.2124L12 95.3867L5.13183 95.3867L5.13183 94.2441L5.92529 94.2251C5.31168 93.84 5.00488 93.2941 5.00488 92.5874C5.00488 92.3589 5.0345 92.1854 5.09375 92.0669L6.18555 92.0669Z" fill="#8C8C8C"/>
<path d="M12 56.6196L12 57.8384L2.75781 57.8384L2.75781 56.6196L12 56.6196ZM5.13184 53.4585L5.99512 53.4204C5.33496 52.8957 5.00488 52.2101 5.00488 51.3638C5.00488 49.9123 5.82373 49.1802 7.46143 49.1675L12 49.1675L12 50.3418L7.45508 50.3418C6.95996 50.346 6.59391 50.4603 6.35693 50.6846C6.11995 50.9046 6.00146 51.2495 6.00146 51.7192C6.00146 52.1001 6.10303 52.4344 6.30615 52.7222C6.50928 53.0099 6.77588 53.2342 7.10596 53.395L12 53.395L12 54.5693L5.13184 54.5693L5.13184 53.4585ZM10.1782 43.3975C9.86084 43.3975 9.6154 43.5181 9.44189 43.7593C9.26416 43.9963 9.11182 44.4131 8.98486 45.0098C8.85791 45.6022 8.70557 46.0741 8.52783 46.4253C8.3501 46.7723 8.13851 47.0304 7.89307 47.1997C7.64762 47.3647 7.35563 47.4473 7.01709 47.4473C6.45426 47.4473 5.97819 47.2103 5.58887 46.7363C5.19954 46.2581 5.00488 45.6488 5.00488 44.9082C5.00488 44.1296 5.20589 43.499 5.60791 43.0166C6.00993 42.5299 6.52409 42.2866 7.15039 42.2866L7.15039 43.4673C6.82878 43.4673 6.55159 43.6048 6.31885 43.8799C6.0861 44.1507 5.96973 44.4935 5.96973 44.9082C5.96973 45.3356 6.06282 45.6699 6.24902 45.9111C6.43522 46.1523 6.67855 46.2729 6.979 46.2729C7.26253 46.2729 7.47624 46.1608 7.62012 45.9365C7.764 45.7122 7.90153 45.3081 8.03271 44.7241C8.1639 44.1359 8.32047 43.6598 8.50244 43.2959C8.68441 42.932 8.90446 42.6632 9.1626 42.4897C9.4165 42.312 9.72754 42.2231 10.0957 42.2231C10.7093 42.2231 11.2023 42.4686 11.5747 42.9595C11.9429 43.4504 12.127 44.0872 12.127 44.8701C12.127 45.4202 12.0296 45.9069 11.835 46.3301C11.6403 46.7533 11.3695 47.0854 11.0225 47.3267C10.6712 47.5636 10.2925 47.6821 9.88623 47.6821L9.88623 46.5078C10.2798 46.4867 10.5929 46.3301 10.8257 46.0381C11.0542 45.7419 11.1685 45.3525 11.1685 44.8701C11.1685 44.4258 11.0796 44.0703 10.9019 43.8037C10.7199 43.5329 10.4787 43.3975 10.1782 43.3975ZM3.46875 39.1001L5.13184 39.1001L5.13184 37.8179L6.03955 37.8179L6.03955 39.1001L10.2988 39.1001C10.5739 39.1001 10.7812 39.043 10.9209 38.9287C11.0563 38.8145 11.124 38.6198 11.124 38.3447C11.124 38.2093 11.0986 38.0231 11.0479 37.7861L12 37.7861C12.0846 38.0951 12.127 38.3955 12.127 38.6875C12.127 39.2122 11.9683 39.6079 11.6509 39.8745C11.3335 40.1411 10.8828 40.2744 10.2988 40.2744L6.03955 40.2744L6.03955 41.5249L5.13184 41.5249L5.13184 40.2744L3.46875 40.2744L3.46875 39.1001ZM12 32.2002C11.8646 32.2679 11.6234 32.3229 11.2764 32.3652C11.8434 32.9111 12.127 33.5628 12.127 34.3203C12.127 34.9974 11.9365 35.5539 11.5557 35.9897C11.1706 36.4214 10.6839 36.6372 10.0957 36.6372C9.38053 36.6372 8.82617 36.3664 8.43262 35.8247C8.03483 35.2788 7.83594 34.5129 7.83594 33.5269L7.83594 32.3843L7.29639 32.3843C6.8859 32.3843 6.56006 32.507 6.31885 32.7524C6.0734 32.9979 5.95068 33.3597 5.95068 33.8379C5.95068 34.2568 6.05648 34.6081 6.26807 34.8916C6.47965 35.1751 6.73568 35.3169 7.03613 35.3169L7.03613 36.4976C6.69336 36.4976 6.36328 36.377 6.0459 36.1357C5.72428 35.8903 5.47038 35.5602 5.28418 35.1455C5.09798 34.7266 5.00488 34.2674 5.00488 33.7681C5.00488 32.9767 5.20377 32.3568 5.60156 31.9082C5.99512 31.4596 6.5389 31.2269 7.23291 31.21L10.394 31.21C11.0246 31.21 11.526 31.1296 11.8984 30.9687L12 30.9687L12 32.2002ZM11.105 34.1489C11.105 33.7808 11.0098 33.4316 10.8193 33.1016C10.6289 32.7715 10.3813 32.5324 10.0767 32.3843L8.66748 32.3843L8.66748 33.3047C8.66748 34.7435 9.08854 35.4629 9.93066 35.4629C10.2988 35.4629 10.5866 35.3402 10.7939 35.0947C11.0013 34.8493 11.105 34.534 11.105 34.1489ZM8.50879 29.6484C7.43815 29.6484 6.58756 29.4009 5.95703 28.9058C5.32226 28.4106 5.00488 27.7547 5.00488 26.938C5.00488 26.1001 5.30111 25.4463 5.89355 24.9766L5.13183 24.9194L5.13183 23.8467L11.835 23.8467C12.7236 23.8467 13.424 24.1112 13.936 24.6401C14.4481 25.1649 14.7041 25.8716 14.7041 26.7603C14.7041 27.2554 14.5983 27.7399 14.3867 28.2139C14.1751 28.6878 13.8853 29.0496 13.5171 29.2993L12.8125 28.6899C13.4346 28.1864 13.7456 27.5706 13.7456 26.8428C13.7456 26.2715 13.5848 25.8271 13.2632 25.5098C12.9416 25.1882 12.4888 25.0273 11.9048 25.0273L11.3145 25.0273C11.8561 25.4971 12.127 26.1382 12.127 26.9507C12.127 27.7547 11.8032 28.4064 11.1558 28.9058C10.5083 29.4009 9.62598 29.6484 8.50879 29.6484ZM8.64209 28.4678C9.4165 28.4678 10.0259 28.3091 10.4702 27.9917C10.9103 27.6743 11.1304 27.23 11.1304 26.6587C11.1304 25.9181 10.7939 25.3743 10.1211 25.0273L6.98535 25.0273C6.32943 25.387 6.00146 25.9266 6.00146 26.646C6.00146 27.2173 6.22363 27.6637 6.66797 27.9854C7.1123 28.307 7.77034 28.4678 8.64209 28.4678ZM6.18555 18.7495C6.15592 18.9272 6.14111 19.1198 6.14111 19.3271C6.14111 20.0973 6.46907 20.62 7.125 20.895L12 20.895L12 22.0693L5.13183 22.0693L5.13183 20.9268L5.92529 20.9077C5.31168 20.5226 5.00488 19.9767 5.00488 19.27C5.00488 19.0415 5.0345 18.868 5.09375 18.7495L6.18555 18.7495ZM12 13.6777C11.8646 13.7454 11.6234 13.8005 11.2764 13.8428C11.8434 14.3887 12.127 15.0404 12.127 15.7979C12.127 16.4749 11.9365 17.0314 11.5557 17.4673C11.1706 17.8989 10.6839 18.1147 10.0957 18.1147C9.38053 18.1147 8.82617 17.8439 8.43262 17.3022C8.03483 16.7563 7.83594 15.9904 7.83594 15.0044L7.83594 13.8618L7.29638 13.8618C6.8859 13.8618 6.56006 13.9845 6.31885 14.23C6.0734 14.4754 5.95068 14.8372 5.95068 15.3154C5.95068 15.7344 6.05648 16.0856 6.26806 16.3691C6.47965 16.6527 6.73568 16.7944 7.03613 16.7944L7.03613 17.9751C6.69336 17.9751 6.36328 17.8545 6.0459 17.6133C5.72428 17.3678 5.47038 17.0378 5.28418 16.623C5.09798 16.2041 5.00488 15.745 5.00488 15.2456C5.00488 14.4543 5.20377 13.8343 5.60156 13.3857C5.99512 12.9372 6.5389 12.7044 7.23291 12.6875L10.394 12.6875C11.0246 12.6875 11.526 12.6071 11.8984 12.4463L12 12.4463L12 13.6777ZM11.105 15.6265C11.105 15.2583 11.0098 14.9092 10.8193 14.5791C10.6289 14.249 10.3813 14.0099 10.0767 13.8618L8.66748 13.8618L8.66748 14.7822C8.66748 16.221 9.08854 16.9404 9.93066 16.9404C10.2988 16.9404 10.5866 16.8177 10.7939 16.5723C11.0013 16.3268 11.105 16.0116 11.105 15.6265ZM5.13183 9.74219L5.89355 9.71045C5.3011 9.20687 5.00488 8.52767 5.00488 7.67285C5.00488 6.71224 5.37304 6.05843 6.10937 5.71143C5.77929 5.48291 5.51269 5.18669 5.30957 4.82275C5.10644 4.45459 5.00488 4.02083 5.00488 3.52148C5.00488 2.01497 5.80257 1.24902 7.39795 1.22363L12 1.22363L12 2.39795L7.46777 2.39795C6.97689 2.39795 6.61084 2.51009 6.36963 2.73437C6.12418 2.95866 6.00146 3.33529 6.00146 3.86426C6.00146 4.30013 6.13265 4.66195 6.39502 4.94971C6.65316 5.23747 7.00228 5.40462 7.44238 5.45117L12 5.45117L12 6.63184L7.49951 6.63184C6.50081 6.63184 6.00146 7.12061 6.00146 8.09814C6.00146 8.86833 6.32942 9.39518 6.98535 9.67871L12 9.67871L12 10.853L5.13183 10.853L5.13183 9.74219Z" fill="#8C8C8C"/>
</svg>
